<mxfile host="Electron" agent="Mozilla/5.0 (Windows NT 10.0; Win64; x64) AppleWebKit/537.36 (KHTML, like Gecko) draw.io/28.0.6 Chrome/138.0.7204.100 Electron/37.2.3 Safari/537.36" version="28.0.6">
  <diagram name="Page-1" id="n5vA4QatIMsYvTIGQhW0">
    <mxGraphModel dx="2066" dy="1201" grid="0" gridSize="10" guides="1" tooltips="1" connect="1" arrows="1" fold="1" page="1" pageScale="1" pageWidth="827" pageHeight="1169" math="0" shadow="0">
      <root>
        <mxCell id="0" />
        <mxCell id="1" parent="0" />
        <mxCell id="M6dwogYvRgrVWfFEsJZ7-6" value="Yes" style="edgeStyle=orthogonalEdgeStyle;rounded=0;orthogonalLoop=1;jettySize=auto;html=1;exitX=0.5;exitY=1;exitDx=0;exitDy=0;entryX=0.498;entryY=-0.004;entryDx=0;entryDy=0;entryPerimeter=0;" edge="1" parent="1" source="M6dwogYvRgrVWfFEsJZ7-9" target="M6dwogYvRgrVWfFEsJZ7-22">
          <mxGeometry x="-0.6331" relative="1" as="geometry">
            <mxPoint x="248" y="230" as="sourcePoint" />
            <mxPoint x="130" y="641" as="targetPoint" />
            <Array as="points">
              <mxPoint x="264" y="300" />
              <mxPoint x="156" y="300" />
            </Array>
            <mxPoint as="offset" />
          </mxGeometry>
        </mxCell>
        <mxCell id="M6dwogYvRgrVWfFEsJZ7-12" value="No" style="edgeStyle=orthogonalEdgeStyle;rounded=0;orthogonalLoop=1;jettySize=auto;html=1;exitX=0.5;exitY=1;exitDx=0;exitDy=0;entryX=0.5;entryY=0;entryDx=0;entryDy=0;" edge="1" parent="1" source="M6dwogYvRgrVWfFEsJZ7-9" target="M6dwogYvRgrVWfFEsJZ7-17">
          <mxGeometry x="-0.4353" relative="1" as="geometry">
            <mxPoint x="267" y="341" as="sourcePoint" />
            <mxPoint x="382" y="320" as="targetPoint" />
            <Array as="points">
              <mxPoint x="264" y="300" />
              <mxPoint x="390" y="300" />
            </Array>
            <mxPoint as="offset" />
          </mxGeometry>
        </mxCell>
        <mxCell id="M6dwogYvRgrVWfFEsJZ7-9" value="Is bus&amp;nbsp;&lt;div&gt;relaying&amp;nbsp;&lt;/div&gt;&lt;div&gt;point?&lt;/div&gt;" style="rhombus;whiteSpace=wrap;html=1;rounded=1;absoluteArcSize=1;arcSize=14;strokeWidth=2;" vertex="1" parent="1">
          <mxGeometry x="201" y="190" width="126" height="90" as="geometry" />
        </mxCell>
        <mxCell id="M6dwogYvRgrVWfFEsJZ7-21" value="Yes" style="edgeStyle=orthogonalEdgeStyle;rounded=0;orthogonalLoop=1;jettySize=auto;html=1;entryX=0.5;entryY=0;entryDx=0;entryDy=0;" edge="1" parent="1" source="M6dwogYvRgrVWfFEsJZ7-17" target="M6dwogYvRgrVWfFEsJZ7-19">
          <mxGeometry relative="1" as="geometry" />
        </mxCell>
        <mxCell id="M6dwogYvRgrVWfFEsJZ7-38" value="" style="edgeStyle=orthogonalEdgeStyle;rounded=0;orthogonalLoop=1;jettySize=auto;html=1;entryX=0.5;entryY=1;entryDx=0;entryDy=0;" edge="1" parent="1" source="M6dwogYvRgrVWfFEsJZ7-17" target="M6dwogYvRgrVWfFEsJZ7-35">
          <mxGeometry relative="1" as="geometry">
            <Array as="points">
              <mxPoint x="622" y="530" />
            </Array>
          </mxGeometry>
        </mxCell>
        <mxCell id="M6dwogYvRgrVWfFEsJZ7-39" value="No" style="edgeLabel;html=1;align=center;verticalAlign=middle;resizable=0;points=[];" vertex="1" connectable="0" parent="M6dwogYvRgrVWfFEsJZ7-38">
          <mxGeometry x="-0.6687" y="1" relative="1" as="geometry">
            <mxPoint as="offset" />
          </mxGeometry>
        </mxCell>
        <mxCell id="M6dwogYvRgrVWfFEsJZ7-17" value="Is bus one&amp;nbsp;&lt;div&gt;branch away&lt;div&gt;from mapped&lt;/div&gt;&lt;div&gt;bus?&lt;/div&gt;&lt;/div&gt;" style="rhombus;whiteSpace=wrap;html=1;rounded=1;absoluteArcSize=1;arcSize=14;strokeWidth=2;" vertex="1" parent="1">
          <mxGeometry x="302" y="470" width="176" height="120" as="geometry" />
        </mxCell>
        <mxCell id="M6dwogYvRgrVWfFEsJZ7-33" style="edgeStyle=orthogonalEdgeStyle;rounded=0;orthogonalLoop=1;jettySize=auto;html=1;entryX=0.5;entryY=1;entryDx=0;entryDy=0;exitX=0.5;exitY=1;exitDx=0;exitDy=0;entryPerimeter=0;" edge="1" parent="1" source="M6dwogYvRgrVWfFEsJZ7-19" target="M6dwogYvRgrVWfFEsJZ7-42">
          <mxGeometry relative="1" as="geometry">
            <mxPoint x="752" y="380" as="targetPoint" />
            <Array as="points">
              <mxPoint x="390" y="910" />
              <mxPoint x="622" y="910" />
            </Array>
          </mxGeometry>
        </mxCell>
        <mxCell id="M6dwogYvRgrVWfFEsJZ7-19" value="bus coordinates:&lt;div&gt;{&lt;/div&gt;&lt;div&gt;&amp;nbsp; &amp;nbsp; x: mappedbus.R + branch.R&lt;/div&gt;&lt;div&gt;&amp;nbsp; &amp;nbsp; y: mappedbus.X + branch.X&lt;/div&gt;&lt;div&gt;}&lt;/div&gt;&lt;div&gt;&lt;br&gt;&lt;/div&gt;&lt;div&gt;isMapped = true&lt;/div&gt;" style="whiteSpace=wrap;html=1;rounded=1;absoluteArcSize=1;arcSize=14;strokeWidth=2;align=left;spacingLeft=8;" vertex="1" parent="1">
          <mxGeometry x="290" y="710" width="200" height="120" as="geometry" />
        </mxCell>
        <mxCell id="M6dwogYvRgrVWfFEsJZ7-36" style="edgeStyle=orthogonalEdgeStyle;rounded=0;orthogonalLoop=1;jettySize=auto;html=1;entryX=0.5;entryY=1;entryDx=0;entryDy=0;" edge="1" parent="1" source="M6dwogYvRgrVWfFEsJZ7-42" target="M6dwogYvRgrVWfFEsJZ7-35">
          <mxGeometry relative="1" as="geometry">
            <Array as="points" />
          </mxGeometry>
        </mxCell>
        <mxCell id="M6dwogYvRgrVWfFEsJZ7-22" value="bus coordinates:&lt;div&gt;{&lt;/div&gt;&lt;div&gt;&amp;nbsp; &amp;nbsp; x: 0&lt;/div&gt;&lt;div&gt;&amp;nbsp; &amp;nbsp; y: 0&lt;/div&gt;&lt;div&gt;}&lt;/div&gt;&lt;div&gt;&lt;br&gt;&lt;/div&gt;&lt;div&gt;isMapped = true&lt;/div&gt;" style="whiteSpace=wrap;html=1;rounded=1;absoluteArcSize=1;arcSize=14;strokeWidth=2;align=left;spacingLeft=8;" vertex="1" parent="1">
          <mxGeometry x="54" y="710" width="205" height="120" as="geometry" />
        </mxCell>
        <mxCell id="M6dwogYvRgrVWfFEsJZ7-29" style="edgeStyle=orthogonalEdgeStyle;rounded=0;orthogonalLoop=1;jettySize=auto;html=1;entryX=1;entryY=0.5;entryDx=0;entryDy=0;exitX=0.5;exitY=0;exitDx=0;exitDy=0;" edge="1" parent="1" source="M6dwogYvRgrVWfFEsJZ7-35" target="M6dwogYvRgrVWfFEsJZ7-9">
          <mxGeometry relative="1" as="geometry">
            <mxPoint x="874" y="260" as="sourcePoint" />
            <Array as="points">
              <mxPoint x="622" y="235" />
            </Array>
          </mxGeometry>
        </mxCell>
        <mxCell id="M6dwogYvRgrVWfFEsJZ7-35" value="&lt;div&gt;Proceed to&amp;nbsp;&lt;/div&gt;&lt;div&gt;next bus&lt;/div&gt;" style="rounded=1;whiteSpace=wrap;html=1;absoluteArcSize=1;arcSize=14;strokeWidth=2;" vertex="1" parent="1">
          <mxGeometry x="572" y="330" width="100" height="100" as="geometry" />
        </mxCell>
        <mxCell id="M6dwogYvRgrVWfFEsJZ7-41" value="" style="edgeStyle=orthogonalEdgeStyle;rounded=0;orthogonalLoop=1;jettySize=auto;html=1;entryX=0.5;entryY=1;entryDx=0;entryDy=0;exitX=0.459;exitY=1.069;exitDx=0;exitDy=0;exitPerimeter=0;" edge="1" parent="1" source="M6dwogYvRgrVWfFEsJZ7-22" target="M6dwogYvRgrVWfFEsJZ7-42">
          <mxGeometry relative="1" as="geometry">
            <mxPoint x="176" y="864" as="sourcePoint" />
            <mxPoint x="704" y="430" as="targetPoint" />
            <Array as="points">
              <mxPoint x="150" y="838" />
              <mxPoint x="150" y="910" />
              <mxPoint x="622" y="910" />
            </Array>
          </mxGeometry>
        </mxCell>
        <mxCell id="M6dwogYvRgrVWfFEsJZ7-42" value="Job done! Proceed to next bus!" style="strokeWidth=2;html=1;shape=mxgraph.flowchart.terminator;whiteSpace=wrap;" vertex="1" parent="1">
          <mxGeometry x="572" y="630" width="100" height="60" as="geometry" />
        </mxCell>
      </root>
    </mxGraphModel>
  </diagram>
</mxfile>
